<svg xmlns="http://www.w3.org/2000/svg" version="1.1" xmlns:xlink="http://www.w3.org/1999/xlink" xmlns:svgjs="http://svgjs.com/svgjs" width="512" height="512" x="0" y="0" viewBox="0 0 512 512" style="enable-background:new 0 0 512 512" xml:space="preserve" class=""><g><linearGradient id="a" x1="43.93" x2="468.07" y1="43.93" y2="468.07" gradientUnits="userSpaceOnUse"><stop stop-opacity="1" stop-color="#00d8ff" offset="0"></stop><stop stop-opacity="1" stop-color="#069bc0" offset="1"></stop></linearGradient><linearGradient id="b" x1="245.78" x2="469.82" y1="242.28" y2="466.32" gradientUnits="userSpaceOnUse"><stop stop-opacity="0.62" stop-color="#424458" offset="0"></stop><stop stop-opacity="0" stop-color="#424458" offset="1"></stop></linearGradient><g data-name="37"><rect width="512" height="512" fill="url(#a)" rx="150" data-original="url(#a)" class=""></rect><path fill="url(#b)" d="m380.68 116.95-162.3 152.74-19.3 28.86 73.63 73.63-134.33 22.95L255.25 512h106.73c82.84 0 150-67.16 150-150V248.27z" data-original="url(#b)" class=""></path><g fill="#fff"><path d="M345.32 116.95 216.77 245.5l-50.09-50.09c-9.76-9.76-25.59-9.76-35.36 0-9.76 9.76-9.76 25.59 0 35.36l67.77 67.77c9.76 9.76 25.59 9.76 35.36 0L380.69 152.3c9.76-9.76 9.76-25.59 0-35.36-9.76-9.76-25.59-9.76-35.36 0z" fill="#ffffff" data-original="#ffffff" class=""></path><rect width="250" height="50" x="131" y="352.38" rx="25" transform="rotate(180 256 377.375)" fill="#ffffff" data-original="#ffffff" class=""></rect></g></g></g></svg>